<svg width="90" height="35" viewBox="0 0 90 35" fill="none" xmlns="http://www.w3.org/2000/svg">
<path d="M5.84326 10.432C5.84326 10.432 6.66145 -2.30089 21.2353 2.25024C28.9057 4.65365 36.5251 7.05706 44.6047 5.47184C52.9399 3.78434 60.6103 0.000244141 69.3035 0.000244141C75.9001 0.000244141 83.8774 1.38092 87.9172 7.21047C91.4971 12.3752 89.6556 19.1764 88.3259 24.7502C88.1729 25.4662 86.9967 30.8867 85.4114 29.3014C82.241 26.1309 84.5932 19.1764 81.6785 16.2616C79.3262 13.9093 78.4569 15.8014 77.6899 18.1537C76.616 21.3241 73.9057 23.0116 72.6274 18.5116C71.6047 14.8809 69.0989 13.04 65.3149 12.8355C59.0251 12.5287 60.0478 17.8468 59.1274 22.1934C58.7182 24.0855 57.3887 27.0002 55.0876 26.898C51.3547 26.7445 54.0649 20.0457 53.2467 18.0002C52.2239 15.4945 49.1557 16.9775 47.3149 17.54C44.4001 18.4093 41.2807 18.5627 38.3149 18.0002C36.116 17.5912 32.6387 15.5457 30.6955 17.6423C29.8774 18.5116 29.5705 19.79 29.4172 20.9662C29.1614 23.0116 29.1103 25.057 29.0592 27.1025C28.9569 30.9377 24.0989 31.2445 23.6387 27.3582C23.0762 23.0116 24.3035 13.2445 16.991 14.3184C14.1785 14.7275 11.7751 17.8468 8.86027 17.0287C6.04781 16.2105 5.68986 12.7843 5.84326 10.432Z" fill="white"/>
<path d="M53.1952 12.6318C52.1725 10.1261 49.1044 11.6091 47.2634 12.1716C44.3487 13.041 41.2294 13.1943 38.2634 12.6318C36.0645 12.2228 32.5873 10.1773 30.6441 12.2738C29.8259 13.1432 29.5191 14.4216 29.3657 15.5978C29.11 17.6432 29.0589 19.6886 29.0077 21.7341C28.9055 25.5693 24.0475 25.8761 23.5873 21.9898C23.0248 17.6432 24.252 7.87615 16.9395 8.95002C14.127 9.35908 11.7237 12.4785 8.80888 11.6603C7.32592 11.2511 6.55888 10.075 6.14978 8.69434C5.8941 9.71705 5.84296 10.433 5.84296 10.433C5.68955 12.7853 6.04751 16.2113 8.75773 16.9785C11.6725 17.7966 14.127 14.6773 16.8884 14.2682C24.2009 13.1943 22.9737 22.9613 23.5362 27.308C24.0475 31.1432 28.8544 30.8875 28.9566 27.0523C29.0077 24.9557 29.11 22.9613 29.3145 20.916C29.468 19.6886 29.7748 18.4613 30.593 17.5921C32.5362 15.4955 36.0134 17.541 38.2123 17.95C41.1782 18.5125 44.2975 18.3591 47.2123 17.4898C48.9509 16.9785 51.8146 15.5978 52.9907 17.6432C53.1441 15.7511 53.6044 13.6546 53.1952 12.6318Z" fill="#D9F1FF"/>
<path d="M88.326 19.4334C88.1727 20.1492 86.9966 25.5697 85.4113 23.9844C82.2409 20.814 84.5931 13.8594 81.6784 10.9447C79.3261 8.59242 78.4568 10.4844 77.6898 12.8367C76.6159 16.0072 73.9056 17.6947 72.6273 13.1947C71.6045 9.56397 69.0988 7.7231 65.3148 7.51855C59.025 7.21173 60.0476 12.5299 59.1273 16.8765C58.7181 18.7686 57.3886 21.6834 55.0875 21.5811C54.167 21.5299 53.6045 21.0697 53.3488 20.4049C53.0931 23.1662 52.3773 26.7969 55.0875 26.8992C57.4398 27.0015 58.7181 24.0867 59.1273 22.1947C60.0988 17.8481 59.025 12.5299 65.3148 12.8367C69.15 13.0412 71.6045 14.8311 72.6273 18.5129C73.9056 23.0129 76.6159 21.2742 77.6898 18.1549C78.5079 15.8537 79.3261 13.9617 81.6784 16.2629C84.5931 19.1777 82.2409 26.1322 85.4113 29.3027C86.9966 30.8879 88.1727 25.5186 88.326 24.7515C89.2463 20.814 90.4225 16.2629 89.8092 12.1209C89.5022 14.6265 88.8889 17.1322 88.326 19.4334Z" fill="#D9F1FF"/>
<path d="M53.3497 18.563C53.4008 17.796 53.4009 17.08 53.1963 16.6198C52.1735 14.1141 49.1054 15.597 47.2645 16.1595C44.3497 17.0289 41.2304 17.1823 38.2645 16.6198C36.0656 16.2107 32.5883 14.1653 30.6452 16.2618C29.827 17.1312 29.5202 18.4095 29.3667 19.5857C29.111 21.6312 29.0599 23.6766 29.0088 25.722C28.9065 29.5573 24.0485 29.8641 23.5883 25.9778C23.0258 21.6312 24.2531 11.8641 16.9406 12.938C14.1281 13.347 11.7247 16.4664 8.80992 15.6482C6.61106 15.0345 5.94629 12.7845 5.84402 10.688C5.74174 13.0403 6.15083 16.2618 8.80992 17.0289C11.7247 17.847 14.1792 14.7278 16.9406 14.3187C24.2531 13.2448 23.0258 23.0118 23.5883 27.3585C24.0997 31.1937 28.9065 30.938 29.0088 27.1028C29.0599 25.0062 29.1622 23.0118 29.3667 20.9664C29.5202 19.7391 29.827 18.5118 30.6452 17.6425C32.5883 15.546 36.0656 17.5914 38.2645 18.0005C41.2304 18.563 44.3497 18.4095 47.2645 17.5403C49.1054 16.9778 52.1735 15.4948 53.1963 18.0005C53.2474 18.1539 53.2985 18.3585 53.3497 18.563Z" fill="#B4DCFF"/>
<path d="M88.3268 23.4209C88.1735 24.1368 86.9974 29.5573 85.4121 27.972C82.2417 24.8016 84.5939 17.847 81.6792 14.9323C79.3269 12.58 78.4576 14.472 77.6906 16.8243C76.6167 19.9948 73.9064 21.6823 72.628 17.1823C71.6053 13.5516 69.0996 11.7106 65.3156 11.5061C59.0257 11.1993 60.0485 16.5175 59.1281 20.8641C58.7189 22.7561 57.3894 25.6709 55.0882 25.5686C53.6564 25.5175 53.1962 24.4948 53.0939 23.1141C52.9917 25.0573 53.2474 26.7959 55.0882 26.8981C57.4406 27.0004 58.7189 24.0856 59.1281 22.1936C60.0996 17.847 59.0257 12.5288 65.3156 12.8356C69.1507 13.0402 71.6053 14.83 72.628 18.5118C73.9064 23.0118 76.6167 21.2731 77.6906 18.1538C78.5087 15.8527 79.3269 13.9606 81.6792 16.2618C84.5939 19.1766 82.2417 26.1311 85.4121 29.3016C86.9974 30.8868 88.1735 25.5175 88.3268 24.7504C89.0936 21.3754 90.1171 17.5913 89.9636 13.9606C89.8612 17.1823 89.0424 20.455 88.3268 23.4209Z" fill="#B4DCFF"/>
<path d="M80.5025 3.88684C80.3492 4.60275 78.3548 4.8073 76.1048 4.29593C73.8548 3.78457 72.1673 2.76184 72.3207 2.04593C72.4742 1.33003 74.4685 1.12548 76.7185 1.63684C78.9685 2.14821 80.656 3.17093 80.5025 3.88684Z" fill="#D9F1FF"/>
<path d="M71.1961 1.9442C71.1961 2.45557 69.9177 2.96693 68.2814 2.96693C66.645 3.01807 65.3154 2.60897 65.3154 2.09762C65.3154 1.58625 66.5939 1.07488 68.2302 1.07488C69.8666 1.02375 71.1961 1.43284 71.1961 1.9442Z" fill="#D9F1FF"/>
<path d="M18.0143 2.91588C18.0143 3.42725 16.7359 3.93861 15.0995 3.93861C13.4631 3.93861 12.0825 3.6318 12.0825 3.0693C12.0825 2.55793 13.3609 2.04656 14.9973 2.04656C16.6336 1.99543 18.0143 2.40452 18.0143 2.91588Z" fill="#D9F1FF"/>
<path fill-rule="evenodd" clip-rule="evenodd" d="M42.8153 22.653C42.8153 23.369 42.2016 23.9825 41.4858 23.9825C40.7698 23.9825 40.1562 23.369 40.1562 22.653C40.1562 21.9372 40.7698 21.3235 41.4858 21.3235C42.2016 21.3235 42.8153 21.886 42.8153 22.653Z" fill="white"/>
<path fill-rule="evenodd" clip-rule="evenodd" d="M74.2133 32.3188C74.2133 33.0347 73.5997 33.6483 72.8837 33.6483C72.1678 33.6483 71.5542 33.0347 71.5542 32.3188C71.5542 31.6028 72.1678 30.9893 72.8837 30.9893C73.5997 30.9893 74.2133 31.6028 74.2133 32.3188Z" fill="white"/>
<path fill-rule="evenodd" clip-rule="evenodd" d="M3.52941 13.6766C3.52941 14.3892 2.71493 15.0001 1.76471 15.0001C0.81448 15.0001 0 14.3892 0 13.6766C0 12.9639 0.81448 12.353 1.76471 12.353C2.71493 12.353 3.52941 12.9639 3.52941 13.6766Z" fill="white"/>
<path fill-rule="evenodd" clip-rule="evenodd" d="M81.3721 10.2783C81.3721 10.6363 81.0652 10.9431 80.7073 10.9431C80.3494 10.9431 80.0425 10.6363 80.0425 10.2783C80.0425 9.92032 80.3494 9.61353 80.7073 9.61353C81.0652 9.61353 81.3721 9.92032 81.3721 10.2783Z" fill="white"/>
</svg>
